<svg width="188" height="168" viewBox="0 0 188 168" fill="none" xmlns="http://www.w3.org/2000/svg">
<g id="BG object">
<path id="Vector 6" d="M36.6112 95.7214C41.61 118.534 29.1451 137.676 48.2962 151.016C63.6992 161.744 109.111 160.719 129.029 158.725C142.825 157.344 146.523 135.227 153.727 123.368C163.372 107.489 170.664 102.074 170.988 83.4929C171.393 60.3371 161.195 47.6006 145.494 30.5913C134.869 19.0818 142.673 9.11783 127.701 4.53928C107.963 -1.49669 94.5808 -1.52948 74.853 4.53928C56.8407 10.0803 46.6018 16.3711 34.2212 30.5913C15.2581 52.3719 30.4275 67.5007 36.6112 95.7214Z" fill="#F6F8FB"/>
<g id="Group 16">
<path id="Vector 10" d="M178.188 123.682C175.036 125.201 172.217 126.535 169.695 127.752C169.289 127.948 170.493 134.874 170.493 134.874C170.493 134.874 167.696 128.723 167.306 128.915C164.772 130.162 162.577 131.298 160.677 132.409C160.359 132.595 161.976 141.431 161.976 141.431C161.976 141.431 159.121 133.355 158.821 133.55C157.912 134.14 157.083 134.732 156.327 135.338C156.176 135.459 160.558 149.353 160.558 149.353C160.558 149.353 155.588 135.956 155.445 136.083C149.239 141.606 148.584 148.755 148.746 166.943C148.746 166.943 166.544 163.381 175.728 154.75C175.839 154.647 163.504 152.352 163.504 152.352C163.504 152.352 176.302 154.194 176.423 154.071C178.128 152.332 179.478 150.398 180.275 148.257C181.14 145.932 181.423 143.177 181.364 140.368C181.359 140.101 171.557 144.03 171.557 144.03C171.557 144.03 181.313 139.034 181.296 138.769C180.815 131.166 178.188 123.682 178.188 123.682Z" fill="#18DF80"/>
<path id="Vector 11" opacity="0.1" d="M178.188 123.682C175.036 125.201 172.217 126.535 169.695 127.752C169.289 127.948 170.493 134.874 170.493 134.874C170.493 134.874 167.696 128.723 167.306 128.915C164.772 130.162 162.577 131.298 160.677 132.409C160.359 132.595 161.976 141.431 161.976 141.431C161.976 141.431 159.121 133.355 158.821 133.55C157.912 134.14 157.083 134.732 156.327 135.338C156.176 135.459 160.558 149.353 160.558 149.353C160.558 149.353 155.588 135.956 155.445 136.083C149.239 141.606 148.584 148.755 148.746 166.943C162.947 153.307 175.098 139.053 178.188 123.682Z" fill="black"/>
</g>
<g id="Group 14">
<path id="Vector 10_2" d="M7.88361 11.0307C10.6766 12.3773 13.1749 13.5593 15.4093 14.6373C15.7692 14.8109 14.7023 20.9491 14.7023 20.9491C14.7023 20.9491 17.1812 15.498 17.5267 15.6681C19.772 16.7736 21.7168 17.7796 23.4002 18.7643C23.6826 18.9295 22.2498 26.7595 22.2498 26.7595C22.2498 26.7595 24.7797 19.6029 25.0451 19.7752C25.8505 20.298 26.5853 20.8225 27.2554 21.3603C27.3888 21.4674 23.5063 33.7795 23.5063 33.7795C23.5063 33.7795 27.9101 21.9072 28.0371 22.0203C33.5359 26.914 34.1166 33.2488 33.9733 49.3662C33.9733 49.3662 18.2013 46.2094 10.063 38.562C9.96529 38.4701 20.8954 36.4363 20.8954 36.4363C20.8954 36.4363 9.55457 38.069 9.44759 37.9599C7.93644 36.4189 6.74031 34.7049 6.0342 32.8079C5.2673 30.7475 5.01715 28.3067 5.06868 25.8173C5.07357 25.5808 13.7598 29.0622 13.7598 29.0622C13.7598 29.0622 5.11405 24.6354 5.12897 24.3998C5.5557 17.6631 7.88361 11.0307 7.88361 11.0307Z" fill="#F84C6B"/>
<path id="Vector 11_2" opacity="0.1" d="M7.88361 11.0307C10.6766 12.3773 13.1749 13.5593 15.4093 14.6373C15.7692 14.8109 14.7023 20.9491 14.7023 20.9491C14.7023 20.9491 17.1812 15.498 17.5267 15.6681C19.772 16.7736 21.7168 17.7796 23.4002 18.7643C23.6826 18.9295 22.2498 26.7595 22.2498 26.7595C22.2498 26.7595 24.7797 19.6029 25.0451 19.7752C25.8505 20.298 26.5853 20.8225 27.2554 21.3603C27.3888 21.4674 23.5063 33.7795 23.5063 33.7795C23.5063 33.7795 27.9101 21.9072 28.0371 22.0203C33.5359 26.914 34.1166 33.2488 33.9733 49.3662C21.389 37.283 10.6213 24.6521 7.88361 11.0307Z" fill="black"/>
</g>
</g>
</svg>
