<svg width="24" height="24" viewBox="0 0 24 24" fill="none" xmlns="http://www.w3.org/2000/svg">
<g id="fluent:people-search-20-regular">
<path id="Vector" d="M12 2.40002C10.7269 2.40002 9.50603 2.90574 8.60586 3.80591C7.70568 4.70609 7.19997 5.92699 7.19997 7.20002C7.19997 8.47306 7.70568 9.69396 8.60586 10.5941C9.50603 11.4943 10.7269 12 12 12C13.273 12 14.4939 11.4943 15.3941 10.5941C16.2943 9.69396 16.8 8.47306 16.8 7.20002C16.8 5.92699 16.2943 4.70609 15.3941 3.80591C14.4939 2.90574 13.273 2.40002 12 2.40002ZM8.39997 7.20002C8.39997 6.24525 8.77926 5.32957 9.45439 4.65444C10.1295 3.97931 11.0452 3.60002 12 3.60002C12.9548 3.60002 13.8704 3.97931 14.5456 4.65444C15.2207 5.32957 15.6 6.24525 15.6 7.20002C15.6 8.1548 15.2207 9.07048 14.5456 9.74561C13.8704 10.4207 12.9548 10.8 12 10.8C11.0452 10.8 10.1295 10.4207 9.45439 9.74561C8.77926 9.07048 8.39997 8.1548 8.39997 7.20002ZM17.838 20.1564C16.5528 20.976 14.8932 21.4332 13.0836 21.5616C12.9933 21.3233 12.8534 21.1069 12.6732 20.9268L12.1452 20.3988C14.1672 20.3796 15.9372 19.944 17.1924 19.1436C18.4524 18.3396 19.2 17.172 19.2 15.6C19.2 15.2818 19.0735 14.9765 18.8485 14.7515C18.6235 14.5265 18.3182 14.4 18 14.4H10.4928C10.3429 13.9764 10.1405 13.5733 9.89037 13.2H18C18.6365 13.2 19.2469 13.4529 19.697 13.903C20.1471 14.3531 20.4 14.9635 20.4 15.6C20.4 17.6292 19.4004 19.1592 17.838 20.1564ZM5.39997 20.4C6.34317 20.4 7.21437 20.088 7.91517 19.5636L10.9752 22.6236C11.0309 22.6794 11.097 22.7237 11.1698 22.7539C11.2427 22.7841 11.3207 22.7997 11.3995 22.7998C11.4784 22.7998 11.5565 22.7843 11.6293 22.7542C11.7022 22.7241 11.7684 22.6799 11.8242 22.6242C11.88 22.5685 11.9242 22.5024 11.9544 22.4296C11.9847 22.3567 12.0002 22.2787 12.0003 22.1998C12.0004 22.121 11.9849 22.0429 11.9548 21.9701C11.9247 21.8972 11.8805 21.831 11.8248 21.7752L8.76477 18.7152C9.33118 17.9578 9.62534 17.0313 9.59962 16.0858C9.5739 15.1403 9.2298 14.2312 8.62304 13.5057C8.01628 12.7801 7.18239 12.2806 6.25638 12.088C5.33037 11.8954 4.36646 12.021 3.52074 12.4445C2.67501 12.868 1.99697 13.5645 1.59641 14.4213C1.19586 15.2781 1.09623 16.2451 1.31367 17.1656C1.5311 18.0861 2.05287 18.9062 2.79449 19.4932C3.5361 20.0802 4.45415 20.3998 5.39997 20.4ZM5.39997 19.2C4.60432 19.2 3.84126 18.884 3.27865 18.3213C2.71604 17.7587 2.39997 16.9957 2.39997 16.2C2.39997 15.4044 2.71604 14.6413 3.27865 14.0787C3.84126 13.5161 4.60432 13.2 5.39997 13.2C6.19562 13.2 6.95868 13.5161 7.52129 14.0787C8.0839 14.6413 8.39997 15.4044 8.39997 16.2C8.39997 16.9957 8.0839 17.7587 7.52129 18.3213C6.95868 18.884 6.19562 19.2 5.39997 19.2Z" fill="white"/>
</g>
</svg>
